<?xml version="1.0" standalone="no"?>
<!DOCTYPE svg PUBLIC "-//W3C//DTD SVG 20010904//EN"
 "http://www.w3.org/TR/2001/REC-SVG-20010904/DTD/svg10.dtd">
<svg version="1.0" xmlns="http://www.w3.org/2000/svg"
 width="64.000000pt" height="64.000000pt" viewBox="0 0 64.000000 64.000000"
 preserveAspectRatio="xMidYMid meet">
<metadata>
Created by potrace 1.16, written by Peter Selinger 2001-2019
</metadata>
<g transform="translate(0.000000,64.000000) scale(0.009275,-0.017680)"
fill="#000000" stroke="none">
<path d="M2937 1801 c-11 -53 -8 -432 3 -473 12 -44 73 -101 125 -118 57 -19
117 -7 192 37 l68 39 -3 239 c-3 280 -3 278 -92 276 -28 0 -55 -3 -60 -6 -5
-3 -11 -2 -13 2 -3 5 -33 7 -67 6 -43 -1 -70 3 -86 14 -15 9 -24 11 -24 4 0
-15 -27 -14 -32 1 -3 7 -8 -2 -11 -21z"/>
<path d="M3764 1537 c-45 -28 -81 -56 -79 -62 1 -5 5 -17 8 -25 12 -29 39
-130 42 -159 5 -39 43 -121 56 -121 6 0 7 -4 4 -10 -10 -16 105 53 147 89 47
40 78 100 78 151 0 82 -86 191 -149 189 -14 0 -63 -24 -107 -52z"/>
</g>
</svg>
