<svg version="1.1" id="Layer_1" xmlns="http://www.w3.org/2000/svg" xmlns:xlink="http://www.w3.org/1999/xlink" x="0px" y="0px"
	 width="100%" viewBox="0 0 600 200" enable-background="new 0 0 600 200" xml:space="preserve">
<path fill="#000000" opacity="1.000000" stroke="none" 
	d="
M223.209808,200.606766 
	C150.549271,201.000000 78.098427,200.949951 5.648137,201.126602 
	C1.383236,201.136993 0.891988,200.000900 0.900448,196.154068 
	C1.040363,132.530975 1.033617,68.907425 0.909439,5.284280 
	C0.902600,1.780192 1.503656,0.886195 5.210331,0.893547 
	C77.494232,1.036925 149.778488,1.000000 222.531342,1.000000 
	C224.183578,3.623104 221.899887,4.192327 220.439285,4.925566 
	C207.530945,11.405641 202.351944,22.058643 202.412537,36.202450 
	C202.597046,79.269386 202.618546,122.338310 202.401093,165.404938 
	C202.328781,179.728973 207.385742,190.593170 220.546310,197.098465 
	C221.864807,197.750214 223.311569,198.394318 223.209808,200.606766 
z"/>
<path fill="#000000" opacity="1.000000" stroke="none" 
	d="
M378.790161,1.393291 
	C451.450745,1.000000 523.901611,1.050052 596.351929,0.873396 
	C600.616943,0.862996 601.108032,1.999250 601.099548,5.845974 
	C600.959656,69.469070 600.966370,133.092621 601.090576,196.715790 
	C601.097412,200.220093 600.496033,201.113785 596.789612,201.106430 
	C524.505676,200.963074 452.221466,201.000000 379.468658,201.000000 
	C377.816406,198.376907 380.100037,197.807678 381.560669,197.074432 
	C394.468964,190.594345 399.648041,179.941467 399.587341,165.797546 
	C399.402557,122.730591 399.381104,79.661636 399.598785,36.594982 
	C399.671204,22.270832 394.614105,11.406791 381.453583,4.901466 
	C380.135162,4.249757 378.688416,3.605719 378.790161,1.393291 
z"/>
<path fill="#FEFEFF" opacity="1.000000" stroke="none" 
	d="
M378.531342,1.000000 
	C378.298676,3.200897 380.366638,2.695219 381.232635,3.093280 
	C394.586151,9.231296 401.043243,19.618708 401.023315,34.291904 
	C400.963409,78.385460 400.921204,122.479362 401.040558,166.572678 
	C401.083496,182.439850 394.664764,193.733032 379.421448,199.386292 
	C379.016174,199.536606 378.744385,200.046921 378.705200,200.694672 
	C327.312439,201.000000 275.624878,201.000000 223.468658,201.000000 
	C223.699234,198.846466 221.727921,199.274200 220.810730,198.860779 
	C207.569397,192.892670 201.020233,182.658798 201.024017,168.155624 
	C201.035690,123.492203 201.045502,78.828773 201.019119,34.165367 
	C201.010315,19.256214 207.598343,8.747922 221.464249,2.953855 
	C222.200806,2.646083 222.830704,2.083106 223.255127,1.319468 
	C274.687561,1.000000 326.375122,1.000000 378.531342,1.000000 
z"/>
<path fill="#36A2FF" opacity="1.000000" stroke="none" 
	d="
M292.210388,75.693680 
	C292.589447,79.713661 292.662476,83.407509 292.622864,87.548897 
	C291.831573,88.820580 290.878906,89.263138 289.891876,89.232025 
	C281.504517,88.967659 273.029846,89.950768 264.439392,87.276077 
	C264.036316,83.301575 263.979492,79.604599 264.008331,75.453506 
	C264.350281,74.785194 264.623260,74.407646 264.885986,74.420395 
	C273.888062,74.857224 283.021118,71.642265 292.210388,75.693680 
z"/>
<path fill="#3CB6FE" opacity="1.000000" stroke="none" 
	d="
M264.433716,64.285606 
	C264.034149,62.280827 263.976349,60.560085 263.999390,58.415245 
	C264.975769,54.031666 267.582581,52.881344 271.474060,52.253391 
	C276.379974,51.461727 281.155090,50.066940 286.607056,50.907738 
	C291.788239,54.152527 292.933990,58.888809 292.649200,64.600967 
	C283.275909,65.564278 273.976562,68.220055 264.433716,64.285606 
z"/>
<path fill="#38ACFF" opacity="1.000000" stroke="none" 
	d="
M264.009033,64.453613 
	C273.231110,66.650215 282.606720,62.745068 292.151367,65.001015 
	C292.608673,68.376266 292.674713,71.750298 292.628601,75.572075 
	C283.404755,73.703621 274.104706,76.486031 264.528168,75.000435 
	C264.038025,71.634811 263.982086,68.270233 264.009033,64.453613 
z"/>
<path fill="#3695FE" opacity="1.000000" stroke="none" 
	d="
M264.006226,87.446472 
	C273.281311,87.333237 282.469482,87.667923 292.083984,87.999527 
	C292.586884,91.367317 292.663483,94.738197 292.628296,98.553886 
	C283.210236,99.858795 273.917572,100.454445 264.451111,97.289627 
	C264.039459,93.964813 263.979370,90.929596 264.006226,87.446472 
z"/>
<path fill="#3486FC" opacity="1.000000" stroke="none" 
	d="
M264.009705,97.447433 
	C273.214935,99.030182 282.628845,96.870857 292.127930,98.984085 
	C292.591034,101.709023 292.665588,104.419357 292.628632,107.567261 
	C291.832336,108.810654 290.864258,109.350243 289.909729,109.229927 
	C281.582031,108.180222 273.108948,109.400818 264.470856,107.300354 
	C264.044128,103.965775 263.981995,100.930305 264.009705,97.447433 
z"/>
<path fill="#2F6EF4" opacity="1.000000" stroke="none" 
	d="
M292.251343,116.673523 
	C292.588470,121.382797 292.663452,125.744492 292.622223,130.557587 
	C292.245941,130.934143 291.985901,130.859299 291.479248,130.463776 
	C290.379211,126.767334 288.102509,125.574722 284.743988,125.343628 
	C279.976379,125.015579 275.235138,125.413574 270.483368,125.362358 
	C268.532654,125.341331 266.524536,125.587440 264.419098,124.252991 
	C264.049561,121.297058 263.986298,118.590965 264.019684,115.442947 
	C269.249725,112.037231 274.770569,114.211967 280.052643,114.136444 
	C283.960236,114.080582 288.371216,113.730583 292.251343,116.673523 
z"/>
<path fill="#3178F9" opacity="1.000000" stroke="none" 
	d="
M292.622894,116.580948 
	C283.436066,115.067413 274.193390,115.367477 264.557861,115.002220 
	C264.051971,112.625992 263.987579,110.250946 264.014709,107.438568 
	C273.314301,106.924690 282.522339,106.847816 292.101196,108.006264 
	C292.588867,110.716820 292.660583,113.428802 292.622894,116.580948 
z"/>
<path fill="#55C7FE" opacity="1.000000" stroke="none" 
	d="
M292.672119,137.801376 
	C293.710846,137.925720 294.427002,137.850693 295.498871,137.689270 
	C296.418579,137.999939 296.875854,138.522552 296.962494,139.197556 
	C297.891754,146.438675 299.078003,153.608932 302.226562,160.562698 
	C298.278290,162.301971 294.539185,161.906708 290.404236,160.876587 
	C286.233734,155.959793 284.230286,150.595779 284.873505,144.023285 
	C285.828949,140.592636 288.898560,139.897736 291.265656,137.906433 
	C291.851379,137.687958 292.100464,137.644989 292.672119,137.801376 
z"/>
<path fill="#3DBFFE" opacity="1.000000" stroke="none" 
	d="
M286.829193,50.713200 
	C281.969360,52.818199 276.515381,52.141411 271.298279,53.693195 
	C268.386475,54.559296 266.125702,55.059708 264.442444,57.913521 
	C264.022430,53.663490 263.803589,49.330456 263.947998,45.009556 
	C264.123871,39.745987 267.476868,38.009388 272.024750,40.836014 
	C276.973236,43.911648 281.772461,47.227539 286.829193,50.713200 
z"/>
<path fill="#50B4FA" opacity="1.000000" stroke="none" 
	d="
M302.378967,160.936615 
	C296.940887,154.286743 296.264160,146.469635 295.897522,138.079834 
	C298.010864,135.564102 300.648895,134.283386 303.573608,132.834045 
	C306.148071,135.075241 305.360443,138.009430 305.372864,140.701950 
	C305.400635,146.722351 306.215088,152.446045 310.131409,157.697449 
	C307.952484,159.911804 305.360168,160.454178 302.378967,160.936615 
z"/>
<path fill="#2354E8" opacity="1.000000" stroke="none" 
	d="
M292.418457,137.606125 
	C290.918854,140.267105 288.484924,141.141510 286.201935,142.753082 
	C284.219849,145.399826 281.686737,146.319992 278.491486,146.707413 
	C273.580322,145.441025 268.829742,144.499329 266.298279,139.306152 
	C265.787292,138.511688 265.447906,138.046646 265.120972,137.291931 
	C266.744904,135.163605 268.950653,134.423676 271.216522,134.055252 
	C277.240021,133.075806 283.310181,133.433456 289.365448,133.753082 
	C290.519928,133.814041 291.613281,134.241180 292.369141,135.780777 
	C292.462830,136.537415 292.466034,136.843567 292.418457,137.606125 
z"/>
<path fill="#2A63F0" opacity="1.000000" stroke="none" 
	d="
M264.016907,124.415680 
	C271.378967,124.003448 278.645203,123.982445 285.911194,124.012444 
	C289.923676,124.029007 292.797363,125.258881 291.958130,130.541321 
	C291.278076,131.773087 290.361145,132.242661 289.372406,132.285568 
	C281.334412,132.634430 273.293640,132.901138 264.785248,132.330673 
	C263.465729,129.772308 263.984589,127.284393 264.016907,124.415680 
z"/>
<path fill="#489CF5" opacity="1.000000" stroke="none" 
	d="
M320.281982,151.802826 
	C318.427704,153.432419 316.549194,154.661499 314.335083,155.940674 
	C312.064056,155.149628 310.709198,153.553146 310.183289,151.700058 
	C308.219299,144.780060 306.903198,137.755615 308.678955,130.147369 
	C310.081329,128.972641 311.252716,128.176300 312.723511,127.318619 
	C315.603210,129.713226 315.850800,133.054398 316.381927,136.263336 
	C317.236267,141.425201 317.706329,146.677734 320.281982,151.802826 
z"/>
<path fill="#3476F2" opacity="1.000000" stroke="none" 
	d="
M320.704834,123.063133 
	C321.672577,122.119034 322.501740,121.540398 323.635803,120.920952 
	C325.889038,121.282089 326.953857,122.785973 327.964142,124.260857 
	C331.344696,129.196259 335.361816,133.683731 338.290466,139.304504 
	C337.073151,142.615524 334.125305,143.558411 331.506042,145.387970 
	C328.381622,144.108627 327.556122,141.185226 326.377197,138.715469 
	C324.029846,133.797806 321.353302,128.957123 320.704834,123.063133 
z"/>
<path fill="#3C83F5" opacity="1.000000" stroke="none" 
	d="
M320.521667,122.771530 
	C323.961395,130.166946 326.934143,137.702469 331.046936,145.148682 
	C329.370453,146.707611 327.560211,147.896957 325.417847,149.157135 
	C321.980255,148.162170 321.317749,145.377579 320.557343,142.703049 
	C318.998566,137.220062 318.226471,131.497925 315.672363,125.974747 
	C317.260956,124.677429 318.730438,123.761414 320.521667,122.771530 
z"/>
<path fill="#4CA8F6" opacity="1.000000" stroke="none" 
	d="
M308.584656,129.845642 
	C309.281067,135.495667 309.650024,141.222473 310.024139,146.948944 
	C310.238495,150.230270 312.347565,152.626846 313.961975,155.631073 
	C312.902100,156.664520 311.804779,157.338242 310.381714,158.063278 
	C304.804871,154.888092 304.439270,149.486191 304.047485,144.207855 
	C303.789398,140.730911 303.978394,137.220764 303.941528,133.239182 
	C305.363739,131.809326 306.811584,130.865799 308.584656,129.845642 
z"/>
<path fill="#418EF6" opacity="1.000000" stroke="none" 
	d="
M315.484924,125.703300 
	C320.425568,130.060684 319.847290,136.461716 321.707855,141.943390 
	C322.511322,144.310638 323.182281,146.606140 324.933533,148.887650 
	C323.699493,150.167603 322.313232,151.107224 320.616577,152.125092 
	C315.537811,148.640015 316.157745,143.032440 315.346924,138.143204 
	C314.774536,134.691574 313.746582,131.401733 313.028870,127.636444 
	C313.741394,126.775932 314.459900,126.294548 315.484924,125.703300 
z"/>
<path fill="#2B6BEC" opacity="1.000000" stroke="none" 
	d="
M338.594971,139.465485 
	C332.817963,134.226791 329.281158,127.282722 324.088989,121.192352 
	C325.393402,119.918121 326.846069,118.956131 328.628937,117.947388 
	C334.159454,121.877823 337.216827,127.687660 341.678467,132.749420 
	C342.549622,135.877563 339.418823,136.939072 338.594971,139.465485 
z"/>
<path fill="#58D0FE" opacity="1.000000" stroke="none" 
	d="
M277.818420,145.901917 
	C280.516510,144.895996 283.170990,144.784088 285.648438,143.067230 
	C284.863373,149.271790 288.073761,154.502060 290.001251,160.397156 
	C287.322937,160.609222 284.934967,159.534210 282.293640,158.137817 
	C280.647552,156.506439 278.981598,155.365463 277.830536,153.767090 
	C276.093231,151.354630 275.132751,148.814117 277.818420,145.901917 
z"/>
<path fill="#2659EB" opacity="1.000000" stroke="none" 
	d="
M264.293213,132.594391 
	C273.144775,130.062469 282.120758,131.354782 291.485199,130.976837 
	C291.947906,130.964264 292.224243,131.020782 292.365112,131.014893 
	C292.580811,132.717865 292.655640,134.426712 292.386230,136.576874 
	C291.757751,134.996841 290.265961,134.959686 288.727356,135.002808 
	C281.085602,135.216965 273.320709,134.013535 265.525757,136.992462 
	C264.843872,135.669327 264.554291,134.336395 264.293213,132.594391 
z"/>
<path fill="#2160E2" opacity="1.000000" stroke="none" 
	d="
M342.038940,132.588715 
	C337.917847,132.326355 337.216888,128.223557 334.729858,125.953888 
	C332.477875,123.898674 330.928467,121.073608 329.014191,118.244316 
	C332.978394,115.787979 338.523956,118.271736 340.469788,123.597244 
	C341.448639,126.276192 342.677338,129.111771 342.038940,132.588715 
z"/>
<path fill="#5DDAFE" opacity="1.000000" stroke="none" 
	d="
M277.745148,145.455597 
	C275.258759,150.831665 279.798035,153.639282 281.963379,157.590240 
	C273.956268,154.254028 268.697571,148.137436 266.100891,139.346466 
	C269.226227,142.280960 273.040161,144.312408 277.745148,145.455597 
z"/>
<path fill="#60B8FC" opacity="1.000000" stroke="none" 
	d="
M292.112305,137.282745 
	C292.042053,137.018173 292.365448,136.956421 292.529358,136.974289 
	C292.777496,137.150070 292.861725,137.307999 292.970337,137.733337 
	C292.994659,138.000732 292.679596,138.033203 292.523621,138.047882 
	C292.305939,137.890793 292.244232,137.719040 292.112305,137.282745 
z"/>
</svg>